<svg width="209" height="35" viewBox="0 0 209 35" fill="none" xmlns="http://www.w3.org/2000/svg">
<path d="M58.8666 4.80238L62.1384 1.48779L65.4101 4.80238L62.1384 8.11697L58.8666 4.80238Z" fill="#E30613"/>
<path fill-rule="evenodd" clip-rule="evenodd" d="M146.877 2.06099C142.297 4.92699 140.006 7.86775 140.006 10.9082C140.006 12.3287 140.661 13.9487 141.995 15.7929C143.832 18.3349 144.763 20.4283 144.763 22.0233C144.763 24.3659 143.807 26.6587 141.869 28.8269H134.52C137.615 26.3846 139.151 24.1666 139.151 22.1977C139.151 21.4252 139 20.7274 138.673 20.1292C138.421 19.6059 137.766 18.609 136.684 17.0888C135.149 14.9704 134.394 12.9019 134.394 10.9082C134.394 7.61854 135.904 4.67777 138.924 2.06099H146.877ZM134.394 31.1696H141.441V34.1103H134.394V31.1696ZM125.007 17.4128V7.04534C125.007 5.79925 124.302 5.15129 122.893 5.15129C121.534 5.15129 120.854 5.77433 120.854 7.04534V17.4128H125.007ZM130.619 28.8518H125.007V21.1012H120.854V28.8518H115.242V21.0763H114.084L110.661 17.4128H115.242V7.04534C115.242 5.32574 115.946 3.97996 117.356 2.93325C118.765 1.91146 120.653 1.38811 123.018 1.38811C125.434 1.38811 127.347 1.96131 128.807 3.08278C130.015 4.02981 130.619 5.35066 130.619 7.04534V28.8518ZM104.394 23.4937V22.447C104.394 21.4002 103.941 20.8769 103.01 20.8769H99.9902V25.0388H103.01C103.941 25.0388 104.394 24.5155 104.394 23.4937ZM110.057 24.0918C110.057 25.313 109.403 26.9827 108.069 27.7304C106.735 28.478 104.923 28.8518 102.658 28.8518H94.3778V20.7772H92.9685L89.5457 17.1137H94.3778V0.86475C95.5356 1.08905 96.6681 1.33826 97.7503 1.63732C100.418 2.4099 102.633 3.35692 104.445 4.4784C108.17 6.82104 109.906 9.7618 109.906 12.553C109.906 15.12 108.723 15.1947 106.081 17.3629C108.723 18.4346 110.057 21.2258 110.057 22.9205V24.0918ZM104.394 12.3537C104.394 10.0609 102.935 8.24158 99.9902 6.89581V17.5623C100.141 17.5125 100.343 17.4128 100.594 17.2882C103.136 15.9175 104.394 14.2976 104.394 12.3537ZM87.7588 28.8518H82.222V22.0233C82.222 21.4999 81.7941 21.2507 80.9636 21.2507H77.4653V28.8269H71.9285V21.2507H70.2675L66.8699 17.6869H71.9033V2.08591H77.4402V17.3131C80.6113 15.5686 82.1968 12.6029 82.1968 9.58735V2.08591H87.7337V9.58735C87.7337 12.9269 86.4753 15.9424 83.9837 17.7617C85.4434 18.1853 86.5508 18.8084 87.1296 19.581C87.5575 20.1292 87.7337 21.0015 87.7337 22.123V28.8518H87.7588ZM59.521 9.7618H65.1836V28.8518H59.5461V9.7618H59.521ZM47.0883 29.425L56.3247 2.08591H50.6117L47.0883 14.1231L43.5396 2.08591H37.8266L47.0883 29.425ZM34.4794 28.8518H25.998C22.3738 28.8518 20.6876 27.2818 20.6876 24.0918V21.475H19.5551L16.1072 17.7866H20.6876V2.08591H34.4794V5.89894H26.2748V17.7866H34.4794V21.4501H26.2748V24.5902C26.2748 24.9142 26.6271 25.0637 27.3067 25.0637H34.4794V28.8518ZM17.3655 28.8518H9.91597L9.56362 29.6493C9.56362 29.6493 11.124 30.3222 10.822 31.8425C10.52 33.3627 8.17941 33.9608 7.12238 33.9608C6.06535 33.9608 4.27846 33.5122 4.27846 33.5122L5.91435 31.6182C5.91435 31.6182 7.47473 31.992 7.85224 31.3191C8.22975 30.6462 7.77673 29.7989 7.02171 29.7989C6.26669 29.7989 5.96468 29.7241 5.96468 29.7241L7.52506 28.179C2.51674 24.341 0 20.0046 0 15.3941C0 10.6341 2.84392 6.17308 8.50659 2.08591H17.1894C13.0871 4.37871 10.1425 6.5469 8.38075 8.64033C6.61903 10.7338 5.73817 13.0016 5.73817 15.444C5.73817 17.986 6.59387 20.2788 8.33042 22.2974C10.1173 24.4158 13.1374 26.584 17.3655 28.8518Z" fill="#193767"/>
<path d="M131.223 32.5901H13.2632V34.1103H131.223V32.5901Z" fill="#E30613"/>
<path d="M183.96 28.8653H181.08V22.4969H170V18.8437L182.203 4.97149L182.105 9.46392L173.173 19.5842H183.96V28.8653Z" fill="#193767"/>
<path d="M197.09 4.92213C190.549 4.92213 185.278 10.2538 185.229 16.869L188.206 16.8197C188.255 11.9323 192.209 7.9829 197.09 7.9829C201.971 7.9829 205.925 11.9817 205.925 16.9184C205.925 21.8551 201.971 25.8045 197.09 25.8045V28.9147C203.923 28.9147 208.951 23.5336 208.951 16.9184C208.951 10.3032 203.631 4.92213 197.09 4.92213Z" fill="#193767"/>
<path d="M185.961 28.0754V28.8653H185.18V28.0754H185.961Z" fill="#193767"/>
<path d="M186.888 30.3957C186.888 30.3957 186.986 30.3957 187.035 30.3957C187.181 30.3957 187.181 30.3957 187.279 30.3957C187.425 30.3957 187.523 30.3957 187.621 30.3463C187.718 30.2969 187.816 30.1982 187.914 30.0501C188.011 29.902 188.109 29.7045 188.206 29.4083L188.304 29.1615L186.498 24.6691H187.133L188.597 28.4704H188.646L190.012 24.6691H190.647L188.89 29.2109C188.694 29.7045 188.499 30.0501 188.353 30.2969C188.206 30.5438 188.011 30.6919 187.865 30.7906C187.718 30.8894 187.523 30.8894 187.328 30.8894C187.181 30.8894 187.035 30.8894 186.84 30.8894" fill="#193767"/>
<path d="M191.965 24.6691V29.2109H191.379V24.6691H191.965Z" fill="#193767"/>
<path d="M193.722 22.9412V29.1615H193.136V22.9412H193.722Z" fill="#193767"/>
<path d="M195.479 28.9147V25.8045H197.432C197.432 25.8045 198.505 27.0881 198.505 27.1374C198.505 27.1868 197.188 28.964 197.188 28.964L195.479 28.9147Z" fill="#193767"/>
<path d="M185.424 16.5728L185.229 16.9184V22.2994H188.206V16.326L185.424 16.5728Z" fill="#193767"/>
<path d="M194.454 16.9678L196.992 14.3513L199.53 16.9678L196.992 19.6336L194.454 16.9678Z" fill="#E30613"/>
</svg>
