<svg width="240" height="40" viewBox="0 0 240 40" fill="none" xmlns="http://www.w3.org/2000/svg">
<g clip-path="url(#clip0_80_137)">
<path d="M67.614 5.38915L71.3719 1.58203L75.1299 5.38915L71.3719 9.19627L67.614 5.38915Z" fill="white"/>
<path fill-rule="evenodd" clip-rule="evenodd" d="M168.702 2.24021C163.441 5.53208 160.811 8.90983 160.811 12.4021C160.811 14.0337 161.562 15.8943 163.094 18.0126C165.205 20.9323 166.274 23.3368 166.274 25.1688C166.274 27.8596 165.176 30.4931 162.95 32.9834H154.509C158.064 30.1782 159.828 27.6306 159.828 25.3692C159.828 24.4818 159.654 23.6803 159.279 22.9933C158.99 22.3922 158.238 21.2472 156.995 19.5011C155.232 17.0679 154.364 14.6921 154.364 12.4021C154.364 8.62358 156.099 5.24583 159.568 2.24021H168.702ZM154.364 35.6742H162.458V39.0519H154.364V35.6742ZM143.582 19.8732V7.9652C143.582 6.53395 142.773 5.78971 141.154 5.78971C139.593 5.78971 138.812 6.50533 138.812 7.9652V19.8732H143.582ZM150.028 33.012H143.582V24.1097H138.812V33.012H132.366V24.0811H131.036L127.105 19.8732H132.366V7.9652C132.366 5.99008 133.175 4.44433 134.794 3.24208C136.413 2.06846 138.581 1.46734 141.298 1.46734C144.073 1.46734 146.27 2.12571 147.947 3.41383C149.335 4.50158 150.028 6.0187 150.028 7.9652V33.012ZM119.907 26.8577V25.6554C119.907 24.4532 119.387 23.8521 118.317 23.8521H114.848V28.6324H118.317C119.387 28.6324 119.907 28.0313 119.907 26.8577ZM126.411 27.5447C126.411 28.9473 125.66 30.8652 124.127 31.7239C122.595 32.5827 120.514 33.012 117.912 33.012H108.402V23.7376H106.783L102.852 19.5297H108.402V0.866211C109.732 1.12384 111.032 1.41009 112.275 1.75358C115.34 2.64096 117.883 3.72871 119.965 5.01683C124.243 7.70758 126.238 11.0853 126.238 14.2913C126.238 17.2397 124.879 17.3256 121.844 19.8159C124.879 21.0468 126.411 24.2528 126.411 26.1993V27.5447ZM119.907 14.0623C119.907 11.4288 118.23 9.3392 114.848 7.79345V20.0449C115.022 19.9877 115.253 19.8732 115.542 19.7301C118.462 18.1557 119.907 16.2951 119.907 14.0623ZM100.799 33.012H94.4398V25.1688C94.4398 24.5677 93.9483 24.2814 92.9944 24.2814H88.9763V32.9834H82.6167V24.2814H80.7089L76.8064 20.1881H82.5878V2.26883H88.9474V19.7587C92.5897 17.7549 94.4109 14.3486 94.4109 10.8849V2.26883H100.77V10.8849C100.77 14.7207 99.3251 18.1843 96.4633 20.2739C98.1399 20.7606 99.4118 21.4762 100.077 22.3636C100.568 22.9933 100.77 23.9952 100.77 25.2833V33.012H100.799ZM68.3655 11.0853H74.8696V33.012H68.3944V11.0853H68.3655ZM54.0853 33.6704L64.6943 2.26883H58.1323L54.0853 16.0947L50.0094 2.26883H43.4475L54.0853 33.6704ZM39.6028 33.012H29.8611C25.6985 33.012 23.7617 31.2087 23.7617 27.5447V24.5391H22.4609L18.5006 20.3026H23.7617V2.26883H39.6028V6.64845H30.1791V20.3026H39.6028V24.5104H30.1791V28.1172C30.1791 28.4893 30.5838 28.6611 31.3643 28.6611H39.6028V33.012ZM19.946 33.012H11.3894L10.9847 33.928C10.9847 33.928 12.777 34.7009 12.4301 36.447C12.0832 38.1932 9.39483 38.8802 8.18073 38.8802C6.96663 38.8802 4.91422 38.3649 4.91422 38.3649L6.79319 36.1894C6.79319 36.1894 8.58543 36.6188 9.01904 35.8459C9.45265 35.073 8.93232 34.0998 8.0651 34.0998C7.19789 34.0998 6.851 34.0139 6.851 34.0139L8.64325 32.2392C2.89072 27.8309 0 22.8502 0 17.5546C0 12.0872 3.26651 6.96333 9.77063 2.26883H19.7436C15.0317 4.90233 11.6496 7.3927 9.62609 9.7972C7.60259 12.2017 6.59084 14.8066 6.59084 17.6118C6.59084 20.5316 7.57368 23.1651 9.56828 25.4837C11.6207 27.9168 15.0895 30.4072 19.946 33.012Z" fill="white"/>
<path d="M150.722 37.3057H15.2341V39.0518H150.722V37.3057Z" fill="white"/>
</g>
<g clip-path="url(#clip1_80_137)">
<path d="M211.295 33.0273H207.988V25.7126H195.261V21.5166L209.277 5.58301L209.165 10.743L198.905 22.3671H211.295V33.0273Z" fill="white"/>
<path d="M226.377 5.52637C218.864 5.52637 212.809 11.6503 212.753 19.2485L216.173 19.1918C216.229 13.5782 220.77 9.04196 226.377 9.04196C231.983 9.04196 236.524 13.6349 236.524 19.3052C236.524 24.9755 231.983 29.5118 226.377 29.5118V33.0841C234.226 33.0841 240 26.9034 240 19.3052C240 11.707 233.889 5.52637 226.377 5.52637Z" fill="white"/>
<path d="M213.594 32.1201V33.0274H212.697V32.1201H213.594Z" fill="white"/>
<path d="M214.659 34.7851C214.659 34.7851 214.771 34.7851 214.827 34.7851C214.996 34.7851 214.996 34.7851 215.108 34.7851C215.276 34.7851 215.388 34.7851 215.5 34.7284C215.612 34.6717 215.724 34.5583 215.837 34.3882C215.949 34.218 216.061 33.9912 216.173 33.651L216.285 33.3675L214.211 28.2075H214.94L216.621 32.5737H216.677L218.247 28.2075H218.976L216.958 33.4242C216.734 33.9912 216.509 34.3882 216.341 34.6717C216.173 34.9552 215.949 35.1253 215.78 35.2387C215.612 35.3521 215.388 35.3521 215.164 35.3521C214.996 35.3521 214.827 35.3521 214.603 35.3521" fill="white"/>
<path d="M220.49 28.2075V33.4242H219.817V28.2075H220.49Z" fill="white"/>
<path d="M222.508 26.2231V33.3677H221.835V26.2231H222.508Z" fill="white"/>
<path d="M224.526 33.084V29.5117H226.769C226.769 29.5117 228.002 30.986 228.002 31.0427C228.002 31.0994 226.489 33.1407 226.489 33.1407L224.526 33.084Z" fill="white"/>
<path d="M212.977 18.9085L212.753 19.3054V25.4861H216.173V18.625L212.977 18.9085Z" fill="white"/>
<path d="M223.349 19.3617L226.264 16.3564L229.18 19.3617L226.264 22.4237L223.349 19.3617Z" fill="white"/>
</g>
<defs>
<clipPath id="clip0_80_137">
<rect width="168.702" height="38.2143" fill="white" transform="translate(0 0.866211)"/>
</clipPath>
<clipPath id="clip1_80_137">
<rect width="44.7387" height="29.8258" fill="white" transform="translate(195.261 5.52637)"/>
</clipPath>
</defs>
</svg>
