<?xml version="1.0" encoding="UTF-8"?>
<svg id="katman_1" xmlns="http://www.w3.org/2000/svg" version="1.1" viewBox="0 0 54.3 55">
  <!-- Generator: Adobe Illustrator 30.0.0, SVG Export Plug-In . SVG Version: 2.1.1 Build 123)  -->
  <defs>
    <style>
      .st0 {
        fill: #fdfeff;
      }

      .st1 {
        fill: #0f4881;
      }
    </style>
  </defs>
  <rect class="st1" x="1.2" y="1.5" width="52" height="52"/>
  <g>
    <path class="st0" d="M15.7,32.5c-2.7,0-4.9-2.3-4.9-5s2.1-5,4.9-5,1.5.3,2.3.5l-2.3-4c-4.5,0-8.2,3.9-8.2,8.6s3.7,8.6,8.3,8.6,5.7-1.6,7.2-4.3l-2.3-4c0,2.7-2.3,4.8-4.8,4.8"/>
    <polygon class="st0" points="32.8 18.9 30.9 22.2 26.9 29.5 22.9 22.2 21 18.9 17.3 18.9 26.9 36.1 36.5 18.9 32.8 18.9"/>
    <path class="st0" d="M46.3,19.9h0v-.4h-.6v.9h.1v-.3h.1v.3h.4l-.3-.4h.1M46.2,19.7h-.1v-.3h.1v.3Z"/>
    <path class="st0" d="M47,19.8c0-.5-.4-.9-.9-.9s-.9.4-.9.9.4.9.9.9.9-.4.9-.9M46.1,20.7c-.4,0-.8-.4-.8-.9s.4-.8.8-.8.8.4.8.8-.4.9-.8.9"/>
    <polygon class="st0" points="41.7 18.9 37.4 26.5 37.4 20.6 34.4 26 34.4 36.1 37.4 36.1 37.4 28.5 41.5 36.1 45.3 36.1 40 27.4 45.3 18.9 41.7 18.9"/>
  </g>
</svg>