<?xml version="1.0" encoding="UTF-8"?>
<svg id="katman_1" xmlns="http://www.w3.org/2000/svg" version="1.1" viewBox="0 0 45.9 21.4">
  <!-- Generator: Adobe Illustrator 30.0.0, SVG Export Plug-In . SVG Version: 2.1.1 Build 123)  -->
  <defs>
    <style>
      .st0 {
        fill: #fdfeff;
      }
    </style>
  </defs>
  <path class="st0" d="M11.4,15.8c-2.7,0-4.9-2.3-4.9-5s2.1-5,4.9-5,1.5.3,2.3.5l-2.3-4C6.9,2.1,3.2,6.1,3.2,10.7s3.7,8.6,8.3,8.6,5.7-1.6,7.2-4.3l-2.3-4c0,2.7-2.3,4.8-4.8,4.8"/>
  <polygon class="st0" points="28.6 2.1 26.7 5.4 22.6 12.7 18.6 5.4 16.7 2.1 13.1 2.1 22.6 19.3 32.2 2.1 28.6 2.1"/>
  <path class="st0" d="M42.1,3.1h0v-.4h-.6v.9h.1v-.3h.1v.3h.4l-.3-.4h.1M42,2.9h-.1v-.3h.1v.3Z"/>
  <path class="st0" d="M42.7,3c0-.5-.4-.9-.9-.9s-.9.4-.9.9.4.9.9.9.9-.4.9-.9M41.8,3.9c-.4,0-.8-.4-.8-.9s.4-.8.8-.8.8.4.8.8-.4.9-.8.9"/>
  <polygon class="st0" points="37.4 2.1 33.1 9.7 33.1 3.8 30.1 9.2 30.1 19.3 33.1 19.3 33.1 11.7 37.3 19.3 41.1 19.3 35.8 10.6 41.1 2.1 37.4 2.1"/>
</svg>