<svg width="446" height="112" viewBox="0 0 446 112" fill="none" xmlns="http://www.w3.org/2000/svg">
  <defs>
    <linearGradient id="cvkproAccent" x1="221" y1="64" x2="221" y2="112" gradientUnits="userSpaceOnUse">
      <stop stop-color="#FF7B66" stop-opacity="0.85" />
      <stop offset="1" stop-color="#FF4D3A" stop-opacity="0.1" />
    </linearGradient>
  </defs>
  <rect x="168" y="70" width="106" height="14" rx="7" fill="url(#cvkproAccent)" />
  <path d="M302 22H347C358.046 22 367 30.9543 367 42V70C367 81.0457 358.046 90 347 90H302C290.954 90 282 81.0457 282 70V42C282 30.9543 290.954 22 302 22Z" fill="#F5F5F5" />
  <path d="M302 22L324.5 8L367 30V42C367 30.9543 358.046 22 347 22H302Z" fill="#EDEDED" />
  <path d="M347 22L324.5 8L282 30V42C282 30.9543 290.954 22 302 22H347Z" fill="#E6E6E6" />
  <path d="M33.52 56.84C33.52 68.91 42.42 75.44 56.34 75.44C66.89 75.44 75.12 71.66 81.32 65.8L70.88 56.73C66.66 60.4 62.11 62.4 56.56 62.4C50.58 62.4 46.81 60.4 46.81 56.84C46.81 53.17 50.58 51.28 56.56 51.28H71.99L77.12 39.38H56.34C42.42 39.38 33.52 45.03 33.52 56.84Z" fill="#09090B" />
  <path d="M84.67 39.38L103.6 75H118.25L137.18 39.38H122.2L110.93 61.07L99.65 39.38H84.67Z" fill="#09090B" />
  <path d="M140.37 75H153.66L178.69 49.38V75H191.98V39.38H178.69L153.66 65V39.38H140.37V75Z" fill="#09090B" />
  <path d="M202.55 39.38V75H215.84V62.84H225.49C240.69 62.84 248.92 58.29 248.92 51.11C248.92 43.93 240.69 39.38 225.49 39.38H202.55ZM215.84 51.84V50.38H225.49C231.18 50.38 235.52 50.89 235.52 51.11C235.52 51.33 231.18 51.84 225.49 51.84H215.84Z" fill="#09090B" />
  <path d="M255.84 39.38V75H269.13V64.4H275.24L283.47 75H298.99L288.66 62.18C295.08 60.4 298.99 56.73 298.99 51.11C298.99 43.93 290.76 39.38 275.56 39.38H255.84ZM269.13 53.84V50.38H275.56C281.25 50.38 285.59 50.89 285.59 52.11C285.59 53.33 281.25 53.84 275.56 53.84H269.13Z" fill="#09090B" />
  <path d="M302.6 57.2C302.6 69.13 313.59 76 329.68 76C345.77 76 356.75 69.13 356.75 57.2C356.75 45.27 345.77 38.4 329.68 38.4C313.59 38.4 302.6 45.27 302.6 57.2ZM316 57.2C316 52.56 321.65 49.61 329.68 49.61C337.71 49.61 343.36 52.56 343.36 57.2C343.36 61.84 337.71 64.79 329.68 64.79C321.65 64.79 316 61.84 316 57.2Z" fill="#09090B" />
</svg>
